[PACKET]
pts=0
pts_time=0.000000
dts=0
dts_time=0.000000
duration=128
duration_time=0.002902
flags=K__
[SIDE_DATA]
side_data_type=Strings Metadata
[/SIDE_DATA]
[/PACKET]
[PACKET]
pts=128
pts_time=0.002902
dts=128
dts_time=0.002902
duration=576
duration_time=0.013061
flags=K__
[/PACKET]
[PACKET]
pts=704
pts_time=0.015964
dts=704
dts_time=0.015964
duration=1024
duration_time=0.023220
flags=K__
[/PACKET]
[PACKET]
pts=1728
pts_time=0.039184
dts=1728
dts_time=0.039184
duration=1024
duration_time=0.023220
flags=K__
[/PACKET]
[PACKET]
pts=2752
pts_time=0.062404
dts=2752
dts_time=0.062404
duration=1024
duration_time=0.023220
flags=K__
[/PACKET]
[STREAM]
codec_name=vorbis
initial_padding=0
[/STREAM]
[FORMAT]
filename=ogg-vorbis-libvorbis-1s
nb_streams=1
nb_programs=0
nb_stream_groups=0
format_name=ogg
start_time=0.000000
duration=1.000000
probe_score=100
[/FORMAT]
